<svg width="160" height="37" viewBox="0 0 160 37" fill="none" xmlns="http://www.w3.org/2000/svg">
<path d="M24.0093 34.8303L24.4969 34.2485C26.6338 33.6849 28.5076 32.2007 29.489 30.0327C31.1957 26.2629 29.5743 21.8329 25.8701 20.0456L28.1854 14.9301C33.4222 17.3019 35.7454 23.4696 33.3725 28.7105C31.6511 32.5152 27.9268 34.7824 24.0084 34.8303" fill="black"/>
<path d="M34.953 21.7354L34.6926 21.022C35.2725 18.8889 34.9251 16.524 33.5389 14.5895C31.1286 11.2265 26.4822 10.4155 23.0837 12.7307L19.8131 8.16742C24.4856 4.81659 30.9867 5.88795 34.3373 10.5636C36.7702 13.9571 36.8704 18.3175 34.9538 21.7354" fill="black"/>
<path d="M29.0875 5.70765L28.3396 5.57612C26.7835 4.00741 24.5622 3.12593 22.1938 3.35937C18.0768 3.76614 15.0518 7.38524 15.3566 11.4878L9.77067 12.04C9.20555 6.3165 13.3843 1.22013 19.1078 0.655709C23.2622 0.244586 27.0874 2.33766 29.0884 5.70765" fill="black"/>
<path d="M12.2785 2.77404L11.7909 3.35588C9.65402 3.91944 7.78015 5.40366 6.7988 7.57164C5.09212 11.3414 6.71347 15.7715 10.4177 17.5588L8.10233 22.6743C2.8656 20.3025 0.542416 14.1348 2.91523 8.89386C4.63671 5.08922 8.36094 2.82282 12.2785 2.77404Z" fill="black"/>
<path d="M1.33475 15.869L1.59511 16.5824C1.01518 18.7155 1.36262 21.0804 2.74886 23.0149C5.15912 26.3779 9.80548 27.1888 13.204 24.8737L16.4746 29.437C11.8021 32.7878 5.30105 31.7164 1.95038 27.0408C-0.482519 23.6473 -0.582655 19.2869 1.33388 15.869" fill="black"/>
<path d="M7.20021 31.8976L7.94819 32.0291C9.50423 33.5978 11.7255 34.4793 14.094 34.2459C18.2109 33.8391 21.2359 30.22 20.9312 26.1175L26.5171 25.5653C27.0822 31.2879 22.9034 36.3842 17.18 36.9487C13.0256 37.3598 9.20034 35.2667 7.19934 31.8967" fill="black"/>
<path d="M159.663 32.6328H158.504C155.602 32.6328 153.25 30.2801 153.25 27.3779V4.77565H156.715V29.1661H159.663V32.6328Z" fill="black"/>
<path d="M87.6442 12.4285H82.5503C79.6454 12.4285 77.29 14.7846 77.29 17.6903V32.651H80.76V15.8986H87.6442V12.4276V12.4285Z" fill="black"/>
<path d="M53.1518 32.651V4.75736H64.974C69.7693 4.75736 73.6877 7.46886 73.6877 12.3118C73.6877 14.9849 72.7394 16.767 70.6087 17.9682C70.2987 18.1232 70.2212 18.2391 70.2212 18.4716C70.2212 18.665 70.3379 18.7817 70.5312 18.8592C72.9327 19.8278 74.5402 21.8033 74.5402 24.9033C74.5402 29.9395 71.2356 32.651 65.6323 32.651H53.1509H53.1518ZM56.869 16.8446H64.9157C68.3047 16.8446 69.9695 15.6434 69.9695 12.4668C69.9695 9.29017 67.6838 8.08903 64.5857 8.08903H56.869V16.8446ZM56.869 29.3194H65.2448C68.5964 29.3194 70.822 28.1182 70.822 24.7482C70.822 21.3782 68.9873 20.1762 64.9157 20.1762H56.869V29.3194Z" fill="black"/>
<path d="M96.2952 20.8739L103.654 20.5638V19.4794C103.654 16.612 102.182 14.9466 98.6192 14.9466C95.0561 14.9466 93.6228 16.6129 93.5453 18.7042H89.9439C90.0989 14.8691 92.8095 11.9241 98.6192 11.9241C104.429 11.9241 107.024 14.8682 107.024 19.6728V32.651H103.693V30.5205C103.693 30.3655 103.616 30.288 103.461 30.288C103.306 30.288 103.228 30.3271 103.073 30.5205C101.641 32.4385 99.51 33.232 96.8768 33.232C91.8421 33.232 88.9373 30.5972 88.9373 26.7237C88.9373 23.237 91.2613 21.0873 96.296 20.8739M97.2634 30.2104C101.137 30.2104 103.654 28.0024 103.654 23.7405V23.5079L96.2952 23.818C93.5845 23.9338 92.422 24.9799 92.422 26.7237C92.422 28.8542 94.1644 30.2104 97.2634 30.2104Z" fill="black"/>
<path d="M127.599 18.8984H124.036C123.765 16.1477 121.906 14.9083 118.652 14.9083C115.398 14.9083 114.043 16.1477 114.043 17.814C114.043 19.4803 115.244 20.0613 117.993 20.5839L120.859 21.1265C124.538 21.8242 127.753 23.0245 127.753 27.0155C127.753 31.0065 124.693 33.2338 119.503 33.2338C114.314 33.2338 110.421 30.9865 110.092 26.1828H113.636C113.907 28.856 116.134 30.2505 119.503 30.2505C122.872 30.2505 124.267 28.9527 124.267 27.2089C124.267 25.4651 122.873 24.865 120.084 24.3423L117.219 23.7997C113.287 23.0637 110.557 21.7267 110.557 17.8532C110.557 13.9798 113.888 11.9259 118.652 11.9259C123.416 11.9259 127.211 13.9798 127.598 18.8993" fill="black"/>
<path d="M150.81 22.5785C150.81 29.5519 146.163 33.232 140.314 33.232C134.465 33.232 129.818 29.5519 129.818 22.5785C129.818 15.6051 134.465 11.925 140.314 11.925C146.163 11.925 150.81 15.6051 150.81 22.5785ZM133.343 22.5785C133.343 27.4214 136.248 30.1329 140.315 30.1329C144.381 30.1329 147.286 27.4214 147.286 22.5785C147.286 17.7356 144.381 15.0241 140.315 15.0241C136.248 15.0241 133.343 17.7356 133.343 22.5785Z" fill="black"/>
</svg>
